<svg id="Capa_1" enable-background="new 0 0 494.748 494.748" height="512" viewBox="0 0 494.748 494.748" width="512" xmlns="http://www.w3.org/2000/svg"><g><path d="m266.788 478.4 77.326-299.052h-193.48l77.326 299.052c5.636 21.797 33.192 21.797 38.828 0l77.326-299.052h-193.48l77.326 299.052c5.636 21.797 33.192 21.797 38.828 0z" fill="#fbedce"/><path d="m314.114 179.348-77.326 299.052c-.933 3.61-2.477 6.609-4.414 9.023 9.757 12.163 29.711 9.164 34.414-9.023l77.326-299.052z" fill="#f4daa7"/><path d="m197.947 362.325 4.341 16.791 121.072-119.506 7.318-28.299z" fill="#f4daa7"/><path d="m220.858 450.933 71.118-69.947 7.296-28.214-82.751 81.387z" fill="#f4daa7"/><path d="m290.397 271.071-7.317 28.299 40.28-39.76 3.111-12.031 4.207-16.268z" fill="#f1cd88"/><path d="m291.976 380.986 7.295-28.214-40.231 39.568-7.295 28.214z" fill="#f1cd88"/><path d="m190.553 333.73 25.362-25.362c2.929-2.929 2.929-7.678 0-10.607-2.93-2.929-7.678-2.929-10.607 0l-19.113 19.113z" fill="#f4daa7"/><path d="m243.459 206.88-32.777 32.778c-2.929 2.929-2.929 7.678 0 10.606 1.465 1.464 3.385 2.197 5.304 2.197s3.839-.732 5.304-2.197l32.777-32.778c2.929-2.929 2.929-7.678 0-10.607-2.93-2.927-7.678-2.927-10.608.001z" fill="#f4daa7"/><path d="m350.771 173.656c.759-5.078 1.17-10.271 1.17-15.561 0-57.751-46.816-104.567-104.567-104.567s-104.567 46.816-104.567 104.567c0 5.29.411 10.482 1.17 15.561-11.474 2.927-19.958 13.33-19.958 25.715 0 14.657 11.882 26.539 26.539 26.539 10.778 0 20.049-6.429 24.204-15.658 4.156 9.229 13.426 15.658 24.204 15.658s20.049-6.429 24.204-15.658c4.155 9.229 13.426 15.658 24.204 15.658s20.049-6.429 24.204-15.658c4.155 9.229 13.426 15.658 24.204 15.658s20.049-6.429 24.204-15.658c4.156 9.229 13.426 15.658 24.204 15.658 14.657 0 26.539-11.882 26.539-26.539 0-12.385-8.484-22.788-19.958-25.715z" fill="#ffe06f"/><path d="m350.771 173.656c.759-5.078 1.17-10.271 1.17-15.561 0-57.751-46.816-104.567-104.567-104.567-5.094 0-10.101.372-15 1.076 50.643 7.276 89.567 50.835 89.567 103.491v.159c-.013 8.148 3.578 15.77 9.712 21.133 5.563 4.864 9.077 12.014 9.077 19.984 0 9.085-4.567 17.1-11.528 21.883 4.836 3.322 10.818 5.095 17.245 4.561 12.398-1.031 22.597-10.798 24.084-23.149 1.661-13.801-7.282-25.827-19.76-29.01z" fill="#ffd05c"/><path d="m350.771 120.127c.759-5.078 1.17-10.271 1.17-15.561 0-57.75-46.816-104.566-104.567-104.566s-104.567 46.816-104.567 104.567c0 5.29.411 10.482 1.17 15.561-11.474 2.927-19.958 13.33-19.958 25.715 0 14.657 11.882 26.539 26.539 26.539 10.778 0 20.049-6.429 24.204-15.658 4.156 9.229 13.426 15.658 24.204 15.658s20.049-6.429 24.204-15.658c4.155 9.229 13.426 15.658 24.204 15.658s20.049-6.429 24.204-15.658c4.155 9.229 13.426 15.658 24.204 15.658s20.049-6.429 24.204-15.658c4.156 9.229 13.426 15.658 24.204 15.658 14.657 0 26.539-11.882 26.539-26.539 0-12.386-8.484-22.788-19.958-25.716z" fill="#ffc1c7"/><g fill="#ffb3ba"><path d="m350.771 120.127c.759-5.078 1.17-10.271 1.17-15.56 0-57.751-46.816-104.567-104.567-104.567-5.094 0-10.101.372-15 1.075 50.643 7.276 89.567 50.835 89.567 103.491v.159c-.013 8.148 3.578 15.77 9.712 21.133 5.563 4.864 9.077 12.014 9.077 19.984 0 9.085-4.567 17.1-11.528 21.883 4.836 3.322 10.819 5.096 17.246 4.561 12.397-1.031 22.596-10.799 24.082-23.151 1.661-13.8-7.281-25.824-19.759-29.008z"/><circle cx="209.772" cy="89.141" r="7.5"/><circle cx="285.82" cy="53.528" r="7.5"/><circle cx="293.32" cy="116.432" r="7.5"/></g></g></svg>