<svg id="Capa_1" enable-background="new 0 0 512 512" height="512" viewBox="0 0 512 512" width="512" xmlns="http://www.w3.org/2000/svg"><g><path d="m14.097 466.083c-8.787 8.787-8.787 23.033 0 31.82s23.033 8.787 31.82 0l90.156-90.156 5.303-37.123-37.123 5.303z" fill="#ff9a42"/><path d="m111.376 348.124h60v45h-60z" fill="#ff7a3c" transform="matrix(.707 -.707 .707 .707 -220.662 208.521)"/><path d="m266.683 450.24 76.071-88.61-21.213-21.213-120.06 90.311 21.213 21.213c11.716 11.716 30.711 11.716 42.426 0 .55-.55 1.065-1.12 1.563-1.701z" fill="#db2116"/><path d="m245.47 429.027 76.071-88.61-53.741-96.167-117.43-75.004-88.61 76.071c-.58.498-1.151 1.013-1.701 1.563-11.716 11.716-11.716 30.711 0 42.426l141.421 141.422c11.716 11.716 30.711 11.716 42.426 0 .551-.55 1.066-1.12 1.564-1.701z" fill="#ff3a2f"/><path d="m228.059 350.703 62.485-65.74-22.772-40.741-38.691-24.709-67.784 64.428c-6.113 5.81-6.236 15.516-.273 21.479l45.555 45.555c5.965 5.963 15.67 5.84 21.48-.272z" fill="#db2116"/><path d="m439.931 248.435-42.426-42.426-79.612 138.658c7.256 2.995 14.906 7.008 24.862 16.964z" fill="#ebebeb"/><path d="m418.717 227.222-45.759-88.186-109.393-66.967-113.195 97.177c24.047 24.047 13.44 34.654 37.487 58.701 6.858 6.858 12.62 10.893 17.915 13.721l83.213-18.659-18.654 83.22c2.829 5.294 6.863 11.055 13.719 17.91 14.093 14.093 23.571 16.288 33.843 20.527z" fill="#fff"/><path d="m372.958 139.037-36.014-22.047-131.172 124.678c13.273 7.091 23.596 6.578 40.787 23.768 17.193 17.193 16.678 27.518 23.772 40.794l122.505-128.885z" fill="#ebebeb"/><path d="m482.837 198.457c30.354-35.36 28.808-88.679-4.69-122.177l-21.213-21.213-42.587 177.248c7.589 2.693 15.355 5.892 25.585 16.121z" fill="#405acc"/><path d="m461.623 177.244c30.354-35.36 28.808-88.679-4.69-122.177l-21.213-21.214c-33.498-33.498-86.817-35.044-122.177-4.69l-49.978 42.906c22.045 22.045 11.438 32.651 33.483 54.696 6.276 6.276 11.624 9.902 16.574 12.392l64.457-5.236-5.238 64.459c2.49 4.948 6.116 10.295 12.39 16.569 11.817 11.817 20.348 14.254 29.115 17.365z" fill="#4271db"/><path d="m375.005 80.813-61.384 58.345c12.437 6.256 22.354 5.323 38.124 21.092 15.772 15.772 14.836 25.691 21.096 38.13l58.347-61.385c5.605-5.897 5.487-15.188-.266-20.941l-34.976-34.976c-5.753-5.753-15.043-5.871-20.941-.265z" fill="#405acc"/><path d="m511.938 136.397c-.878-24.702-10.993-47.938-28.482-65.427l-42.426-42.427c-17.49-17.488-40.725-27.604-65.427-28.481-24.568-.873-48.34 7.438-66.939 23.404l-251.783 216.153c-.798.685-1.492 1.324-2.119 1.951-14.621 14.621-14.621 38.412 0 53.033l60.104 60.104-106.093 106.094c-11.697 11.697-11.697 30.729 0 42.427 11.697 11.697 30.729 11.697 42.426 0l106.093-106.093 60.104 60.104c14.621 14.621 38.412 14.621 53.033 0 .627-.627 1.266-1.321 1.951-2.119l216.153-251.783c15.966-18.6 24.277-42.372 23.405-66.94zm-471.345 356.224c-5.849 5.849-15.365 5.849-21.213 0-5.849-5.848-5.849-15.364 0-21.213l106.093-106.093 21.213 21.213zm220.406-47.273c-.442.515-.815.922-1.176 1.283-8.773 8.773-23.047 8.773-31.82 0l-162.634-162.634c-8.773-8.773-8.773-23.047 0-31.82.361-.361.768-.734 1.283-1.176l83.145-71.379c7.111 8.256 9.579 14.571 12.344 21.689 2.853 7.346 6.087 15.672 14.781 25.844.13.152.265.297.404.436 2.741 2.741 7.174 2.953 10.171.391 3.148-2.691 3.519-7.426.828-10.574-7.038-8.232-9.43-14.394-12.201-21.528-2.889-7.438-6.126-15.721-14.955-26.02l101.786-87.382c6.009 7.232 8.021 12.964 10.28 19.413 2.946 8.409 6.285 17.94 18.517 30.172 3.424 3.424 6.63 6.132 9.665 8.349l-156.432 148.686c-3.002 2.854-3.123 7.601-.27 10.604.045.047.09.093.136.139 2.866 2.866 7.512 2.939 10.467.13l51.856-49.289c2.53 1.13 4.952 2.071 7.323 2.991 8.509 3.301 15.857 6.152 26.764 17.06 10.907 10.906 13.756 18.253 17.056 26.761.91 2.347 1.859 4.781 3.001 7.331l-49.289 51.856c-2.809 2.955-2.736 7.601.131 10.468.045.045.092.09.138.136 3.002 2.853 7.75 2.732 10.604-.27l46.255-48.664c2.52 3.446 5.631 7.12 9.596 11.085 13.142 13.142 23.13 17.017 31.943 20.435 7.116 2.76 13.428 5.224 21.682 12.332zm60.923-294.768c7.895 2.765 14.712 5.154 24.525 14.967 9.814 9.814 12.202 16.631 14.968 24.526.763 2.178 1.557 4.434 2.52 6.79l-91.302 96.057c-.11-.284-.22-.566-.331-.852-3.418-8.813-7.292-18.801-20.434-31.943s-23.132-17.018-31.945-20.438c-.283-.11-.558-.219-.838-.328l96.053-91.298c2.355.964 4.608 1.756 6.784 2.519zm-5.801 185.306c-8.508-3.3-15.854-6.149-26.761-17.056-4.313-4.313-7.354-8.065-9.673-11.556l91.902-96.688c2.216 3.034 4.924 6.239 8.346 9.661 12.232 12.232 21.764 15.572 30.173 18.518 6.45 2.259 12.182 4.272 19.415 10.282l-87.383 101.786c-10.3-8.83-18.582-12.062-26.019-14.947zm161.031-142.321-37.869 44.111c-9.451-7.879-17.225-10.619-24.216-13.068-7.895-2.766-14.713-5.154-24.526-14.968-3.741-3.741-6.399-7.046-8.414-10.142l64.579-67.943c2.809-2.955 2.736-7.601-.13-10.468-.045-.045-.092-.09-.138-.136-3.003-2.853-7.75-2.732-10.604.27l-60.387 63.532c-2.917-8.321-6.332-17.754-18.392-29.813-12.056-12.056-21.486-15.472-29.805-18.388l63.53-60.385c3.002-2.854 3.123-7.601.27-10.604-2.871-3.014-7.601-3.123-10.603-.269l-67.942 64.578c-3.097-2.016-6.403-4.674-10.146-8.417-9.813-9.813-12.201-16.63-14.967-24.525-2.45-6.991-5.189-14.764-13.067-24.214l44.111-37.869c32.491-27.892 81.683-26.002 111.988 4.302l42.426 42.427c30.304 30.306 32.194 79.498 4.302 111.989z"/></g></svg>